<?xml version="1.0" encoding="UTF-8"?><svg id="Layer_1" xmlns="http://www.w3.org/2000/svg" viewBox="0 0 1024 1024"><defs><style>.cls-1{fill:#ffdd59;}.cls-2{fill:#ffb421;}.cls-3{fill:#594d43;}</style></defs><path class="cls-1" d="m625.98,470.84c19.72-.58,39.65-1.98,58.9,2.85,30.61,7.69,60.76,17.01,87.14,35.39,4.31,3.01,8.97,4.95,14.45,5.29,22.44,1.37,43.81-1.93,64.26-11.9,11.3-5.51,22.25-11.52,33.07-17.85,3.27-1.91,6.66-3.26,10.4-4.1,10.33-2.3,17.43,2.9,17.74,13.43.64,21.77-3.26,42.66-10.06,63.43-8.13,24.81-16,49.64-29.99,71.87-14.24,22.64-28.53,45.23-45.54,66.04-16.3,19.94-34.79,37.77-53.43,55.26-21.16,19.85-45.18,36.37-70.5,50.8-5.73,3.27-10.94,7.6-16.92,10.28-22.58,10.11-45.78,18.66-69.01,27.21-18.14,6.68-36.49,11.81-55.47,14.89-7.16,1.16-14.44,1.72-21.69,2.25-28.52,2.11-56.88,1.98-85.42-1.8-15.21-2.02-29.08-7.33-43.57-11.16-29.02-7.68-54.4-22.67-77.63-40.84-12.89-10.09-23.52-23.18-34.93-35.17-12.83-13.5-22.4-28.86-30.4-45.31-20.06-41.25-24.07-84.46-14.51-129.09,3.37-15.75,8.86-30.78,17.62-44.39,6.37-9.9,4.54-19.73.88-29.77-6.7-18.37-18.83-32.78-33.21-45.55-2.93-2.6-5.83-5.22-8.74-7.83,31.68-13.05,37.26-35.9,27.81-64.96-8.03-24.7-20.17-47.94-27.79-72.87-.65-2.11-1.22-4.36-4.01-4.65,5.92-7.3,7.83-16.52,11.55-24.83,9.76-21.81,22.36-41.48,37.55-60.02,17.71-21.61,39.57-37.69,63.65-50.31,19.8-10.37,41.74-16.09,64.18-19.24,21.3-2.98,42.38-1.29,63.32,2.1,10.36,1.68,20.76,4.47,30.43,8.46,6.29,2.59,11.84,7.48,18.24,10.24,19.35,8.33,34.85,21.68,50.03,35.91,22.33,20.92,36.26,46.75,47.95,74.48,4.16,9.86,5.52,20.09,8.41,30.08,7.34,25.32,6.97,51.16,3.65,76.81-2.56,19.76-7.22,39.3-15.07,57.84-.78,1.83-1.45,3.71-2.05,5.61-.7,2.23.31,3.64,2.56,3.39m-227.84-82.54c14.89.41,28.39-11.41,27.96-28.3-.42-16.68-12.57-26.62-27.42-27.12-16.29-.54-28.07,12.89-28.46,27.94-.36,14.11,13.82,28.88,27.92,27.48Z"/><path class="cls-2" d="m225.42,322.59c2.79.29,3.37,2.54,4.01,4.65,7.62,24.93,19.76,48.17,27.79,72.87,9.45,29.06,3.88,51.91-27.81,64.96-26.5-19.96-56.99-33.2-84.94-50.71-10.94-6.86-21.6-14.3-28.91-25.39-6.04-9.16-4.46-15.84,5.03-21.14,8.34-4.66,17.84-5.61,26.9-7.7,21.11-4.89,41.78-10.56,60.18-22.71,6.53-4.31,12.09-9.57,17.74-14.82Z"/><path class="cls-3" d="m382.01,390.57c-14.1,1.39-28.28-13.38-27.92-27.48.39-15.05,12.16-28.48,28.46-27.94,14.86.49,27,10.44,27.42,27.12.43,16.89-13.07,28.72-27.96,28.3Z"/></svg>